<svg xmlns="http://www.w3.org/2000/svg" viewBox="0 0 260 72" role="img" aria-labelledby="title desc">
  <title id="title">dbx.tools concept 2 lockup light</title>
  <desc id="desc">Horizontal lockup with isometric coral brick stack icon and dbx.tools wordmark.</desc>
  <rect width="260" height="72" rx="18" fill="#FFFFFF"/>
  <g transform="translate(8 4)"><rect width="64" height="64" rx="14" fill="#FFF7F4"/><g stroke="#FFF7F4" stroke-width="1" stroke-linejoin="round"><polygon points="32,8 45,15 32,22 19,15" fill="#FF9A84"/><polygon points="19,15 32,22 32,37 19,30" fill="#F86C5A"/><polygon points="45,15 32,22 32,37 45,30" fill="#C94E44"/><polygon points="18,31 31,38 18,45 5,38" fill="#FF9A84"/><polygon points="5,38 18,45 18,58 5,51" fill="#F86C5A"/><polygon points="31,38 18,45 18,58 31,51" fill="#C94E44"/><polygon points="46,31 59,38 46,45 33,38" fill="#FF9A84"/><polygon points="33,38 46,45 46,58 33,51" fill="#F86C5A"/><polygon points="59,38 46,45 46,58 59,51" fill="#C94E44"/></g><path d="M28 42c2.2 1.3 5.8 1.3 8 0" fill="none" stroke="#FFF7F4" stroke-width="2" stroke-linecap="round" opacity="0.95"/></g>
  <text x="88" y="44" font-family="'DM Sans', Inter, ui-sans-serif, system-ui, sans-serif" font-size="28" font-weight="700" letter-spacing="-0.8" fill="#171717">dbx<tspan fill="#F86C5A">.tools</tspan></text>
</svg>
