<svg xmlns="http://www.w3.org/2000/svg" viewBox="0 0 64 64" role="img" aria-labelledby="title desc">
  <title id="title">dbx.tools concept 1 icon light</title>
  <desc id="desc">Pixel brick lowercase d mark in coral for light backgrounds.</desc>
  <rect width="64" height="64" rx="14" fill="#FFF7F4"/>
  <g shape-rendering="crispEdges">
    <rect x="34" y="8" width="8" height="8" rx="1" fill="#C94E44"/>
    <rect x="34" y="17" width="8" height="8" rx="1" fill="#F86C5A"/>
    <rect x="16" y="26" width="8" height="8" rx="1" fill="#F86C5A"/>
    <rect x="25" y="26" width="8" height="8" rx="1" fill="#FF7A5C"/>
    <rect x="34" y="26" width="8" height="8" rx="1" fill="#F86C5A"/>
    <rect x="43" y="26" width="8" height="8" rx="1" fill="#C94E44"/>
    <rect x="16" y="35" width="8" height="8" rx="1" fill="#C94E44"/>
    <rect x="34" y="35" width="8" height="8" rx="1" fill="#F86C5A"/>
    <rect x="43" y="35" width="8" height="8" rx="1" fill="#F86C5A"/>
    <rect x="16" y="44" width="8" height="8" rx="1" fill="#F86C5A"/>
    <rect x="25" y="44" width="8" height="8" rx="1" fill="#FF7A5C"/>
    <rect x="34" y="44" width="8" height="8" rx="1" fill="#C94E44"/>
    <rect x="43" y="44" width="8" height="8" rx="1" fill="#F86C5A"/>
    <rect x="36" y="38" width="3" height="2" rx="1" fill="#FFF7F4"/>
    <rect x="41" y="38" width="3" height="2" rx="1" fill="#FFF7F4"/>
  </g>
</svg>
