<svg xmlns="http://www.w3.org/2000/svg" viewBox="0 0 260 72" role="img" aria-labelledby="title desc">
  <title id="title">dbx.tools concept 1 lockup light</title>
  <desc id="desc">Horizontal lockup with pixel brick lowercase d icon and dbx.tools wordmark.</desc>
  <rect width="260" height="72" rx="18" fill="#FFFFFF"/>
  <g transform="translate(8 4)">
    <rect width="64" height="64" rx="14" fill="#FFF7F4"/>
    <g shape-rendering="crispEdges">
      <rect x="34" y="8" width="8" height="8" rx="1" fill="#C94E44"/><rect x="34" y="17" width="8" height="8" rx="1" fill="#F86C5A"/>
      <rect x="16" y="26" width="8" height="8" rx="1" fill="#F86C5A"/><rect x="25" y="26" width="8" height="8" rx="1" fill="#FF7A5C"/><rect x="34" y="26" width="8" height="8" rx="1" fill="#F86C5A"/><rect x="43" y="26" width="8" height="8" rx="1" fill="#C94E44"/>
      <rect x="16" y="35" width="8" height="8" rx="1" fill="#C94E44"/><rect x="34" y="35" width="8" height="8" rx="1" fill="#F86C5A"/><rect x="43" y="35" width="8" height="8" rx="1" fill="#F86C5A"/>
      <rect x="16" y="44" width="8" height="8" rx="1" fill="#F86C5A"/><rect x="25" y="44" width="8" height="8" rx="1" fill="#FF7A5C"/><rect x="34" y="44" width="8" height="8" rx="1" fill="#C94E44"/><rect x="43" y="44" width="8" height="8" rx="1" fill="#F86C5A"/>
      <rect x="36" y="38" width="3" height="2" rx="1" fill="#FFF7F4"/><rect x="41" y="38" width="3" height="2" rx="1" fill="#FFF7F4"/>
    </g>
  </g>
  <text x="88" y="44" font-family="'DM Sans', Inter, ui-sans-serif, system-ui, sans-serif" font-size="28" font-weight="700" letter-spacing="-0.8" fill="#171717">dbx<tspan fill="#F86C5A">.tools</tspan></text>
</svg>
