<svg xmlns="http://www.w3.org/2000/svg" viewBox="0 0 300 72" role="img" aria-labelledby="t d">
  <title id="t">dbx.tools flatbar lockup light</title>
  <desc id="d">Horizontal lockup: pixel-brick mustache mark and dbx.tools wordmark.</desc>
  <rect width="300" height="72" rx="18" fill="#FFFFFF"/>
  <g transform="translate(8 4)"><rect width="64" height="64" rx="14" fill="#F9F7F4"/><g shape-rendering="crispEdges"><rect x="1" y="20" width="8" height="8" rx="1" fill="#FF3621"/><rect x="1" y="29" width="8" height="8" rx="1" fill="#D92D18"/><rect x="10" y="29" width="8" height="8" rx="1" fill="#FF3621"/><rect x="10" y="38" width="8" height="8" rx="1" fill="#D92D18"/><rect x="19" y="29" width="8" height="8" rx="1" fill="#FF5A46"/><rect x="28" y="29" width="8" height="8" rx="1" fill="#FF8974"/><rect x="37" y="29" width="8" height="8" rx="1" fill="#FF5A46"/><rect x="46" y="29" width="8" height="8" rx="1" fill="#FF3621"/><rect x="46" y="38" width="8" height="8" rx="1" fill="#D92D18"/><rect x="55" y="20" width="8" height="8" rx="1" fill="#FF3621"/><rect x="55" y="29" width="8" height="8" rx="1" fill="#D92D18"/></g></g>
  <text x="88" y="45" font-family="'DM Sans', Inter, ui-sans-serif, system-ui, sans-serif" font-size="30" font-weight="700" letter-spacing="-1" fill="#0B2026">dbx<tspan fill="#FF3621">.tools</tspan></text>
</svg>
