<svg xmlns="http://www.w3.org/2000/svg" viewBox="0 0 300 72" width="300" height="72" role="img" aria-label="dbx.tools">
  <!-- Concept 2 - "The Dot Curl" - horizontal lockup - LIGHT MODE.
       Icon at left. In the wordmark, a thin coral swash underlines 'dbx' with its
       tips flicking up (the mustache); the '.' separator sits in the curl. -->
  <rect x="4" y="4" width="64" height="64" rx="14" fill="#FFF1ED"/>
  <g transform="translate(4,4)">
    <g stroke="#E85C42" stroke-width="6" stroke-linecap="round">
      <line x1="22" y1="17" x2="42" y2="37"/>
      <line x1="42" y1="17" x2="22" y2="37"/>
    </g>
    <path d="M13 46 Q19 51 26 50 Q30 49.5 32 50 Q34 49.5 38 50 Q45 51 51 46"
          fill="none" stroke="#FF7A5C" stroke-width="3" stroke-linecap="round"/>
    <circle cx="32" cy="53" r="2.8" fill="#FF7A5C"/>
  </g>
  <!-- wordmark -->
  <g font-family="'DM Sans','Inter','Helvetica Neue',Arial,sans-serif" font-weight="600">
    <text x="86" y="44" font-size="34" fill="#1a1a1a" letter-spacing="-0.5">dbx</text>
    <circle cx="165" cy="40" r="4" fill="#FF7A5C"/>
    <text x="175" y="44" font-size="34" fill="#8a8a8a" letter-spacing="-0.5">tools</text>
  </g>
  <!-- mustache swash under 'dbx' -->
  <path d="M87 56 Q104 62 120 61 Q127 60.5 130 61 Q133 60.5 140 61 Q156 62 160 56"
        fill="none" stroke="#FF7A5C" stroke-width="2.6" stroke-linecap="round"/>
</svg>
